<svg id="Layer_1" data-name="Layer 1" xmlns="http://www.w3.org/2000/svg" viewBox="0 0 792 612"><defs><style>.cls-1{fill:#e30613;}.cls-2{fill:#c6c6c6;}.cls-3{fill:#dadada;}</style></defs><path class="cls-1" d="M348.41,256.56q5.86-6.44,11.74-12.88A191.86,191.86,0,0,1,426.42,246q4.06.88,8,1.9.75,7,1.51,14-38.44,17.72-39.39,15.91-.84-1.63,29.17-19.32c-26-5.87-48.24-5.3-66.28-2.27-1.4.24-2.79.49-4.17.76a540.15,540.15,0,0,1,68.93,57.56c1.53,1.52,3.05,3,4.55,4.55"/><path class="cls-2" d="M622.22,323.11l1.07-2.86.13-.37c.07-.17,12.21-32.87,13.57-36.54l-8-4.16q-7.2,24-14.39,48.09.38,5.69.76,11.37A115.46,115.46,0,0,0,644.19,303a111,111,0,0,0,4.92-11Q638.7,326.52,628.28,361a203.19,203.19,0,0,0,24.62-30.3c3.27-4.92,6.16-9.74,8.71-14.39a76.33,76.33,0,0,1-15.15,15.91c-1.79,1.4-3.57,2.66-5.3,3.78l22-53-11-4.16a103.44,103.44,0,0,1-22.34,37.11A98.53,98.53,0,0,1,622.22,323.11Z"/><path class="cls-1" d="M466.06,291.55q.48-7.83.94-15.66a21.45,21.45,0,0,0-9.49-2.27,6,6,0,0,0-3.3.82,10.31,10.31,0,0,0-2.69,3.1h0s-15.7,23.73-23.94,53.45c-.39,1.42-.69,2.56-.82,3.1l5.16,9.28a26.55,26.55,0,0,0,12-8.46l4.95,5.37a48.08,48.08,0,0,0,18-16.1,43.17,43.17,0,0,0,2.89-5.16,45.51,45.51,0,0,1-10.32,6.4,44,44,0,0,1-5.57,2.06A57.51,57.51,0,0,0,464.94,304c.37-1.78.64-3.51.82-5.16l-8.87-3.31c-2.32,9.15-7.46,22.51-19.61,32a44.78,44.78,0,0,1-4.13,2.89,118.61,118.61,0,0,1,19.4-38.8q2.25-2.93,4.54-5.57Z"/><path class="cls-1" d="M488.18,239.84l12.38,2.93a821.29,821.29,0,0,0-25,80.78c-4.83,19-6.8,29.45-7.65,29.3-1.72-.29,2.57-44.31,14.53-92C484.64,252.21,486.67,245,488.18,239.84Z"/><path class="cls-2" d="M602,317.05a75.66,75.66,0,0,1-11.44,9.6c-1.37.94-2.73,1.8-4.06,2.58a132.12,132.12,0,0,0,14.77-38.57q.76-3.68,1.29-7.2l-8.86-3.32a186.15,186.15,0,0,1-9,31.56,29.11,29.11,0,0,1-3,7.2c-3.56,5.59-9,8.38-12.55,9.78A165.5,165.5,0,0,0,584.32,291q1-3.94,1.84-7.75L576.57,280A328.18,328.18,0,0,0,553.31,310c-1.52,2.22-3,4.44-4.43,6.64a130.92,130.92,0,0,0,11.26-27.86q.83-3,1.48-5.91l-9.23-3.32A264.8,264.8,0,0,1,545.93,308q-1.24,4.35-2.58,8.49a51.19,51.19,0,0,1-12,10.15c-1.13.68-2.24,1.29-3.32,1.85a173.25,173.25,0,0,0,15.68-40.24q.49-2,.93-3.87l-9-4.94-.41-.23c-.19.74-.37,1.48-.56,2.21l-16.61-3.5,6.65-19.2L540.58,260q.55,7.67,1.1,15.32L553.5,256.7l-11.82-.18-17.16-9.6-9.78,2q-1.9,9.39-3.51,19.38-.59,3.72-1.1,7.38l-16.43-.18q-.46,5.45-.92,10.89l14.58-1.66a366.31,366.31,0,0,0-9.05,58.13q-.33,4.58-.55,9c8.12-32.28,11.74-44.86,13.47-49.83.12-.33,1.31-3.74,3-8.49l3.69-10.7,15.87.55a167.14,167.14,0,0,1-11.81,38.76c-.9,2-1.83,4-2.77,5.91l5.72,12.18a76.64,76.64,0,0,0,14-15.14c.64-.92,1.26-1.85,1.84-2.77l-1.84,7.2q.83,5.26,1.66,10.52a517,517,0,0,1,31.19-48.91q1.47-2,3-4.06a118.31,118.31,0,0,1-12,37.65c-.72,1.39-1.46,2.75-2.21,4.06l5.72,11.26a54.77,54.77,0,0,0,10.7-11.26c1.4-2,2.87-4.38,3.14-4.24s-1.26,3.75-2.77,7q2.49,3.89,5,7.75c4.37-2,13.34-6.94,17.9-17A29.32,29.32,0,0,0,602,317.05Z"/><path class="cls-2" d="M600.56,274.79l.18-17.9,10.52-.37Z"/><path class="cls-2" d="M636.73,264.27l-1.84,9.41-11.82-3.87q-6.45,21.22-12.92,42.44A86.77,86.77,0,0,0,612,339.94c1.15,4.93,2.9,8.73,2.58,8.86-.48.19-5.44-8.64-8.12-19.38a69.39,69.39,0,0,1-2-18.09q4.89-21.58,9.79-43.18l-6.46-1.85,7.75-.37,4.24-20.3,11.08,5.54q-2.69,7.09-5.36,14.21Z"/><path class="cls-3" d="M369.15,366.87a242.44,242.44,0,0,0-21.95-30.46c-9.21-10.9-15-15.84-28.49-30.07-7.33-7.77-15.9-17.21-25.22-28.25q-43.37,41.37-86.75,82.72c-3.06,2.69-7.32,6.6-12.11,11.6-6.36,6.65-16.18,16.9-21.69,27.24-10.67,20.05-6.25,42.56-4,50.94.94,3.56,10.49,37.37,43.88,51.45,19.91,8.4,37.8,5.35,44.89,4,7.5-1.39,29.27-5.73,45.9-25.22a75.63,75.63,0,0,0,16.65-36.32c4.2-25.57-6.1-45.36-9.59-51.45l-38.83-41.86,19.67-18.66,38.84,42.37a98,98,0,0,1,9.07,17.14c12.46,30.5,5.78,58.47,4,65.07a103.22,103.22,0,0,1-31.27,51c-31.11,27.36-68,25.68-75.16,25.21-6.75-.44-37.88-3.15-63.05-26.73a108.56,108.56,0,0,1-22.19-30.26c-2.26-4.42-8.89-17.19-11.1-32.79-4.78-33.83,10.67-60.14,16.14-68.59q.51-2.78,1-5.55,1.26-5.06,2.53-10.09l-3-7.06-3.53,4-9.08-8.57a24.25,24.25,0,0,1,5.93-.94,9.43,9.43,0,0,0,3.65-.57q-1.51-4.8-3-9.59a45.12,45.12,0,0,0-15.14,5.55c-6.92,4.1-16.18,12.24-24.71,37.83-5.43,16.29-12.85,38.55-9.08,68.6a142.79,142.79,0,0,0,32.28,72.63c10.39,12.34,33.33,35.33,70.11,45.39,28,7.67,50.9,4.24,61.54,2.53,12.95-2.09,41.78-7.1,69.1-29.76a135.86,135.86,0,0,0,36.82-48.93,143.31,143.31,0,0,0,13.11-49.93C387.52,406.25,375.9,379.66,369.15,366.87ZM273.82,405.7a31,31,0,0,1,6.56,8.07c6.24,11.15,4.64,25.16-1,35.31-9.2,16.55-27.15,19.32-29.76,19.67-10.89,1.49-24-1.25-32.28-9.58-4.44-4.49-7.63-10.76-8.57-12.61-1.8-3.53-3.7-7.2-4.54-12.11a33.42,33.42,0,0,1,2.34-18.62q19.24-19.95,38.51-39.89Z"/><path class="cls-3" d="M383.78,153c-5.6-29.48-20.2-50.48-27.74-60A141.14,141.14,0,0,0,293,47.58c-29.6-10.2-54.56-7.11-66.08-5.54C212.93,43.93,166.28,51,133.6,91c-15.49,19-21.55,37.86-24.21,46.41a145,145,0,0,0,17.15,123.07l67.59,71.62,6.56-5.55,71.62-67.58c2.92-2.68,7.15-6.65,12.11-11.61,17.46-17.48,26.19-26.22,31.27-36.31,12.65-25.12,3.62-52.32,2.52-55.49-8.08-23.21-25.19-35-30.26-38.33C268.27,104.11,248.72,104,241,104.08c-6.93.06-19.73.32-33.8,7.56a68.09,68.09,0,0,0-17.15,12.61,83.59,83.59,0,0,0-19.67,32.28c-9.86,31.13,4.62,59.13,7.57,64.57l38.33,37.32-20.17,18.16a190,190,0,0,1-26.74-26.23c-3.53-4.23-10.64-12.39-15.63-21.69s-16.37-34-11.1-65.57c6.4-38.35,32.78-59.58,39.34-64.56,32.25-24.45,67.34-21.12,75.16-20.18,10.19,1.23,38.24,6.17,61,29.76,18.89,19.55,24.22,41.62,26.23,50.44A104.92,104.92,0,0,1,347,189.32a99.83,99.83,0,0,1-16.64,47.41c-.51,3.2-1,6.39-1.52,9.59l3.53,4,9.59-9.08,9.08,4,7.56-7.06,15.13-2a90.43,90.43,0,0,0,6.56-14.13c4.66-12.79,5.21-23.33,5.65-33.25A149.34,149.34,0,0,0,383.78,153ZM208.25,196.88c-6.86-24,5.08-47.44,23.71-54,14.09-4.93,30.38.36,40.35,10.6.78.8,13.65,14.42,11.1,31.77a37.67,37.67,0,0,1-5.05,13.62c-3.49,5.92-7.17,8.68-14.62,15.13-4.22,3.65-10.35,9.1-17.7,16.15Z"/><path class="cls-1" d="M428.35,319.23l-5.15,13.53A508.71,508.71,0,0,0,348,357.57q-7.95,3.33-15.53,6.82a376.87,376.87,0,0,1,72-37.49q4.56-1.78,9.09-3.41a696.4,696.4,0,0,0-59.46-63.63c-1.89-1.78-3.79-3.55-5.68-5.3"/></svg>