<svg id="Layer_1" data-name="Layer 1" xmlns="http://www.w3.org/2000/svg" viewBox="0 0 664 573"><defs><style>.cls-1{fill:#fefefe;}.cls-2{fill:#d9d9d9;}.cls-3{fill:#c5c5c5;}.cls-4{fill:#e20613;}.cls-5{fill:#e20713;}.cls-6{fill:#c9c9c9;}</style></defs><path class="cls-1" d="M294,592.5H64V19.5H728v573H314a5.84,5.84,0,0,1,1.67-.91c9-1.4,18.09-2.28,27-4.18,29.44-6.3,54.65-20.58,73.47-43.93,24-29.78,36.59-63.84,32.95-102.82-2-21.31-8.06-41.19-19.72-59.26-1.61-2.48-3-5.12-4.45-7.69,17.47-5.78,34.74-12.27,52.49-17,8-2.15,12.2-5.7,14.09-13.37.65-2.63.58-4.27-1.39-6.1-3.85-3.59-7.42-7.49-11.31-11-7.52-6.81-15-13.71-22.83-20.13-11.55-9.45-23.42-18.52-35.51-28,22.86-4.51,45.25-3.56,68.28,1.48l-28.07,18,1.2,2.12,38.23-16.32c-.41-4-.95-7.43-1.07-10.9-.1-2.85-1.32-3.84-4.08-4.51-22.44-5.43-45.11-6.15-68-3.6a7.7,7.7,0,0,0-4.33,2c-3.57,3.61-6.89,7.48-10.31,11.26,24.74,19.43,44.52,43.14,64.24,65.91l-54.29,25.73a24,24,0,0,1-3-2.38q-17-18.48-34-37c-6.16-6.74-12.26-13.53-18.4-20.28-3.08-3.38-6.19-6.74-9.28-10.1-3.43,3-6.7,5.51-9.69,8.36C331.41,323.39,314.84,339,298.56,355c-18,17.64-36,35.36-53.5,53.48-9.15,9.46-13.9,21.46-14.94,34.54a78.34,78.34,0,0,0,10.24,46.43c9.74,16.83,23.13,29.26,42,35.5,13.81,4.57,27.71,4.59,41.72,1.63,19.41-4.11,35.67-13.48,47.4-29.73,13-18,16.26-38.33,12.22-59.69-1.73-9.18-4.45-18.42-11.26-25.66-7.17-7.61-14.23-15.33-21.31-23-4.92-5.34-9.8-10.71-15-16.44l19.45-18.08c9.71,10.48,19,20.44,28.18,30.46,3.69,4,7.7,7.89,10.75,12.38,15.78,23.24,19.5,49.15,13.81,76-7.07,33.36-26.35,58-57.88,72-25.71,11.45-52.15,12.13-78.6,2.62a95.66,95.66,0,0,1-52.26-43.9c-8.86-15.6-15.3-31.94-15.57-50.28-.3-20,6.15-37.94,15.39-55.4,3.84-7.27,7-15.68,2.1-24.51l-4.31,3.45c-2.23-2.35-4.3-4.5-6.31-6.7-.28-.31-.29-.86-.56-1.7l7.26-.9c.23-9-2.2-11-10-8.16a44.73,44.73,0,0,0-8.88,4.52c-9.94,6.44-15.46,16.23-19.62,26.9-9.53,24.43-16.47,49.25-13.2,76a144.89,144.89,0,0,0,11.91,42.38,141.63,141.63,0,0,0,39.79,51.59,134,134,0,0,0,56.16,27.79C280.44,590,287.24,591.17,294,592.5ZM257.87,353.09c2.49-1.94,4.7-3.42,6.62-5.21,16-14.95,32.18-29.8,48-45,18.48-17.75,36.69-35.77,54.92-53.77A71.28,71.28,0,0,0,375,240c9.4-13.09,12.35-27.69,11.12-43.68-1.88-24.35-12.93-43.1-32.7-57-17.31-12.19-36.92-15.6-57.46-13.74-13.95,1.27-26.87,6.15-37.49,15.78-21.47,19.47-31,43.37-26.47,72.35,2.72,17.32,10,31.76,24.31,43,8.51,6.66,15.29,15.52,23.05,23.6l-20.07,17.72c-8.84-9.19-17.64-17.94-26-27.1C211,246.4,202.22,217.65,207,185c4.06-27.7,18.34-49.46,40.66-65.94a99.57,99.57,0,0,1,49.12-19c22.41-2.48,43.29,1.51,62.88,12.42a94.56,94.56,0,0,1,43.23,49.73c7.29,18.82,10.32,38.25,6.5,58.45a107.38,107.38,0,0,1-14,35.43c-3.5,5.84-3.17,11.14,1.06,15.06,1.7-1.4,3.71-2.63,5.15-4.34,2.69-3.22,5.37-4.55,9.33-2,2.68,1.74,5,1,7.44-1.39,2-2,4.95-4.19,7.45-4.16,9.29.13,15-3.84,17.38-12.68a25.36,25.36,0,0,1,1-2.81c6.43-16.17,6.58-33.17,5.59-50.05a150.37,150.37,0,0,0-5.41-33.16c-8-27.32-23.61-49.84-45.61-68C375.31,73.14,348.34,62.5,318,61.73c-13.29-.33-26.82,1.52-40,3.91-25.32,4.6-48.09,15.28-67.3,32.58-26.6,24-39.88,54.8-43.51,89.69a138.17,138.17,0,0,0,8.86,66c5.62,14.13,12.37,27.47,24,38,7.13,6.44,13.4,13.84,20,20.87C232.62,326,245.06,339.39,257.87,353.09ZM626.06,303.9l-9.41-3.17c-.6,1.95-1.15,3.48-1.54,5-2.26,9.16-4.33,18.36-6.75,27.47-2,7.52-8.22,11-14.24,14.76,5.27-14.3,10.38-28.19,15.61-42.39-4.08-2-6.9-4.25-10-4.77-5.6-.94-11.38-.85-17.63-1.23,1.12-3.44,1.81-5.64,2.55-7.82,3.9-11.46,3.9-11.32,15.59-10.88,3.56.13,4.72,1.7,4.72,4.85s0,6.33,0,9.49l1.51.24,10.81-17.25c-.16-.46-.32-.91-.47-1.37-10.44,2.52-17.9-3.54-26-7.82a9.12,9.12,0,0,0-13.34,6.42c-.88,4.38-1.76,8.77-2.32,13.2-.94,7.43-.84,7.36-8.32,7.47-10.06.13-9.82-2.09-9.72,10,0,.29.25.58.5,1.14L571,306.21c-4.48,19.52-7.75,38.67-8.13,58.27a9.61,9.61,0,0,0,2.16-4.2c4.29-14.8,8.35-29.68,12.9-44.4,4-13.06,4.28-13,17.92-10.73.28,0,.52.36,1.19.85a32.18,32.18,0,0,1-.8,4.54c-3.52,11-6.94,22.13-10.76,33.07-2.14,6.11-1.06,12.13,3.51,16.56l14-12.16c.24,3.16.59,7.62,1,12.94l32.66-50.7,2.34,1.1c-3.57,10.26-6.17,21-11,30.62-3.76,7.47-2.32,12.71,3.64,20.24l8.6-11.76a87.09,87.09,0,0,0,4.67,8c.57.78,2.53,1.48,3.23,1.09,8.48-4.63,15.19-10.81,17.6-21l-12.49,9.72-.9-1c7-13.47,12.21-27.49,14.29-43l-8.48-2.94c-3.49,11.3-6.77,22.23-10.25,33.09-2.11,6.56-6,11.56-12.13,13.43,4.51-13.14,9.09-26.37,13.52-39.64.4-1.2.36-3.19-.38-4a7.83,7.83,0,0,0-11.92.43c-5.13,6.51-10.14,13.13-15.24,19.67a34.65,34.65,0,0,1-3.08,3C621.33,319,623.64,311.61,626.06,303.9Zm54,56.87,28.58-33.7-15.78,52.56c6.65-2.9,27.14-29.6,28.18-35.9l-14.08,11.88-.68-.81,21-50.91-11.18-4.06c-6.28,16.07-14.42,30-26.85,41l-1.36-.78c4.39-11.87,8.78-23.73,13.26-35.86l-8.31-4.17c-3.49,11.81-6.7,23.09-10.18,34.28C680.18,342.36,677.18,350.27,680,360.77Zm-172.22-3.69c2.18,1.29,5,4,6.08,3.42a41.16,41.16,0,0,0,18.93-19L520,347.45c2.92-6.83,6.07-13,8.23-19.53,2.9-8.7,2.34-9.18-7.06-10.95-10.81,23.29-15.58,30-23.16,32.37a112.19,112.19,0,0,1,23.16-42l9,5.21c.33-4.87.74-9.15.82-13.43a4.07,4.07,0,0,0-1.67-3.05c-5.81-3.37-11.31-1.89-14.84,3.89a242.15,242.15,0,0,0-21.82,47.35c-2.36,6.84-.61,11.72,3.94,17.38ZM552,260.69c-10.17,37.11-18.42,74-20.23,111.89,10.54-36.22,21.07-72.44,31.73-109ZM677.29,366.4c-1-5.47-2.44-10.89-3-16.41-.85-8.62-.41-17.11,2.57-25.52,3.85-10.9,6.89-22.08,10.34-33.33l11.86,3.54c.57-3.22,1.08-6.07,1.69-9.48l-10.92.8c1.89-5.1,3.46-9.38,5.14-13.92l-11.35-5.56c-1,5.08-2,9.27-2.77,13.46s-1.35,9-7.9,7.63l4.88,2.09c-1.46,6.55-3.1,12.81-4.21,19.16-2,11.62-7.4,22.77-4.68,35.1C670.69,351.84,672.5,359.61,677.29,366.4ZM664.4,294.23l1,.47,10.35-17.91-11.38,1.48Z" transform="translate(-64 -19.5)"/><path class="cls-2" d="M294,592.5c-6.76-1.33-13.56-2.49-20.27-4a134,134,0,0,1-56.16-27.79,141.63,141.63,0,0,1-39.79-51.59,144.89,144.89,0,0,1-11.91-42.38c-3.27-26.76,3.67-51.58,13.2-76,4.16-10.67,9.68-20.46,19.62-26.9a44.73,44.73,0,0,1,8.88-4.52c7.75-2.84,10.18-.81,10,8.16l-7.26.9c.27.84.28,1.39.56,1.7,2,2.2,4.08,4.35,6.31,6.7l4.31-3.45c4.93,8.83,1.74,17.24-2.1,24.51-9.24,17.46-15.69,35.37-15.39,55.4.27,18.34,6.71,34.68,15.57,50.28a95.66,95.66,0,0,0,52.26,43.9c26.45,9.51,52.89,8.83,78.6-2.62,31.53-14,50.81-38.68,57.88-72,5.69-26.84,2-52.75-13.81-76-3.05-4.49-7.06-8.35-10.75-12.38-9.2-10-18.47-20-28.18-30.46L336.07,372c5.23,5.73,10.11,11.1,15,16.44,7.08,7.69,14.14,15.41,21.31,23,6.81,7.24,9.53,16.48,11.26,25.66,4,21.36.78,41.68-12.22,59.69-11.73,16.25-28,25.62-47.4,29.73-14,3-27.91,2.94-41.72-1.63-18.84-6.24-32.23-18.67-42-35.5A78.34,78.34,0,0,1,230.12,443c1-13.08,5.79-25.08,14.94-34.54,17.53-18.12,35.48-35.84,53.5-53.48,16.28-15.93,32.85-31.56,49.34-47.25,3-2.85,6.26-5.41,9.69-8.36,3.09,3.36,6.2,6.72,9.28,10.1,6.14,6.75,12.24,13.54,18.4,20.28q17,18.55,34,37a24,24,0,0,0,3,2.38L403,380.86c.21.35.42.7.64,1.05l21.21-8.2c1.48,2.57,2.84,5.21,4.45,7.69,11.66,18.07,17.74,38,19.72,59.26,3.64,39-8.95,73-32.95,102.82-18.82,23.35-44,37.63-73.47,43.93-8.87,1.9-18,2.78-27,4.18a5.84,5.84,0,0,0-1.67.91Zm14.37-194.25c-.65.59-1.81,1.5-2.83,2.54-10.78,11.08-21.65,22.09-32.23,33.36a19.58,19.58,0,0,0-4.23,8.1c-3.84,14.25,2.41,25.95,11.2,36,17.83,20.31,57.19,13,65.89-15.73,4-13.34,2.59-25.59-8.4-35.53-1.46-1.32-2.52-3.08-3.95-4.45C325.45,414.47,317,406.49,308.37,398.25Z" transform="translate(-64 -19.5)"/><path class="cls-2" d="M257.87,353.09c-12.81-13.7-25.25-27-37.74-40.35-6.6-7-12.87-14.43-20-20.87-11.64-10.49-18.39-23.83-24-38a138.17,138.17,0,0,1-8.86-66c3.63-34.89,16.91-65.74,43.51-89.69,19.21-17.3,42-28,67.3-32.58,13.15-2.39,26.68-4.24,40-3.91,30.3.77,57.27,11.41,80.74,30.83,22,18.2,37.64,40.72,45.61,68a150.37,150.37,0,0,1,5.41,33.16c1,16.88.84,33.88-5.59,50.05a25.36,25.36,0,0,0-1,2.81c-2.42,8.84-8.09,12.81-17.38,12.68-2.5,0-5.47,2.19-7.45,4.16-2.42,2.41-4.76,3.13-7.44,1.39-4-2.59-6.64-1.26-9.33,2-1.44,1.71-3.45,2.94-5.15,4.34-4.23-3.92-4.56-9.22-1.06-15.06a107.38,107.38,0,0,0,14-35.43c3.82-20.2.79-39.63-6.5-58.45a94.56,94.56,0,0,0-43.23-49.73c-19.59-10.91-40.47-14.9-62.88-12.42a99.57,99.57,0,0,0-49.12,19C225.34,135.52,211.06,157.28,207,185c-4.78,32.67,4,61.42,26.32,85.85,8.36,9.16,17.16,17.91,26,27.1l20.07-17.72c-7.76-8.08-14.54-16.94-23.05-23.6C242,245.42,234.75,231,232,213.66c-4.57-29,5-52.88,26.47-72.35C269.12,131.68,282,126.8,296,125.53c20.54-1.86,40.15,1.55,57.46,13.74,19.77,13.91,30.82,32.66,32.7,57,1.23,16-1.72,30.59-11.12,43.68a71.28,71.28,0,0,1-7.63,9.16c-18.23,18-36.44,36-54.92,53.77-15.81,15.19-32,30-48,45C262.57,349.67,260.36,351.15,257.87,353.09ZM271,203.88c0,2.5-.43,5.09.11,7.45.68,2.92,1.41,6.46,3.42,8.33,10.29,9.59,21.11,18.63,31.52,28.1,3,2.74,5,2.82,7.91-.06a184.05,184.05,0,0,1,16.48-15.13c18.95-14.68,22.52-35.28,8.37-54.49-10.6-14.37-33.86-21.84-50.94-9.37C276,177.41,270.66,189.32,271,203.88Z" transform="translate(-64 -19.5)"/><path class="cls-3" d="M626.06,303.9c-2.42,7.71-4.73,15.08-7.32,23.36a34.65,34.65,0,0,0,3.08-3c5.1-6.54,10.11-13.16,15.24-19.67a7.83,7.83,0,0,1,11.92-.43c.74.81.78,2.8.38,4-4.43,13.27-9,26.5-13.52,39.64,6.14-1.87,10-6.87,12.13-13.43,3.48-10.86,6.76-21.79,10.25-33.09l8.48,2.94c-2.08,15.54-7.33,29.56-14.29,43l.9,1,12.49-9.72c-2.41,10.2-9.12,16.38-17.6,21-.7.39-2.66-.31-3.23-1.09a87.09,87.09,0,0,1-4.67-8l-8.6,11.76c-6-7.53-7.4-12.77-3.64-20.24,4.85-9.62,7.45-20.36,11-30.62l-2.34-1.1L604.08,361c-.42-5.32-.77-9.78-1-12.94l-14,12.16c-4.57-4.43-5.65-10.45-3.51-16.56,3.82-10.94,7.24-22,10.76-33.07a32.18,32.18,0,0,0,.8-4.54c-.67-.49-.91-.81-1.19-.85-13.64-2.26-13.88-2.33-17.92,10.73-4.55,14.72-8.61,29.6-12.9,44.4a9.61,9.61,0,0,1-2.16,4.2c.38-19.6,3.65-38.75,8.13-58.27l-13.49,1.08c-.25-.56-.5-.85-.5-1.14-.1-12.09-.34-9.87,9.72-10,7.48-.11,7.38,0,8.32-7.47.56-4.43,1.44-8.82,2.32-13.2a9.12,9.12,0,0,1,13.34-6.42c8.15,4.28,15.61,10.34,26,7.82.15.46.31.91.47,1.37L606.46,295.5l-1.51-.24c0-3.16,0-6.33,0-9.49s-1.16-4.72-4.72-4.85c-11.69-.44-11.69-.58-15.59,10.88-.74,2.18-1.43,4.38-2.55,7.82,6.25.38,12,.29,17.63,1.23,3.11.52,5.93,2.75,10,4.77-5.23,14.2-10.34,28.09-15.61,42.39,6-3.78,12.24-7.24,14.24-14.76,2.42-9.11,4.49-18.31,6.75-27.47.39-1.57.94-3.1,1.54-5Z" transform="translate(-64 -19.5)"/><path class="cls-4" d="M424.88,373.71l-21.21,8.2c-.22-.35-.43-.7-.64-1.05l19.24-11.72,54.29-25.73c-19.72-22.77-39.5-46.48-64.24-65.91,3.42-3.78,6.74-7.65,10.31-11.26a7.7,7.7,0,0,1,4.33-2c22.84-2.55,45.51-1.83,68,3.6,2.76.67,4,1.66,4.08,4.51.12,3.47.66,6.92,1.07,10.9l-38.23,16.32-1.2-2.12,28.07-18c-23-5-45.42-6-68.28-1.48,12.09,9.51,24,18.58,35.51,28,7.85,6.42,15.31,13.32,22.83,20.13,3.89,3.54,7.46,7.44,11.31,11,2,1.83,2,3.47,1.39,6.1-1.89,7.67-6.1,11.22-14.09,13.37C459.62,361.44,442.35,367.93,424.88,373.71Z" transform="translate(-64 -19.5)"/><path class="cls-3" d="M680,360.77c-2.86-10.5.14-18.41,2.64-26.44,3.48-11.19,6.69-22.47,10.18-34.28l8.31,4.17c-4.48,12.13-8.87,24-13.26,35.86l1.36.78c12.43-11,20.57-25,26.85-41l11.18,4.06-21,50.91.68.81L721,343.73c-1,6.3-21.53,33-28.18,35.9l15.78-52.56Z" transform="translate(-64 -19.5)"/><path class="cls-4" d="M507.82,357.08l-11.3,7.63c-4.55-5.66-6.3-10.54-3.94-17.38A242.15,242.15,0,0,1,514.4,300c3.53-5.78,9-7.26,14.84-3.89a4.07,4.07,0,0,1,1.67,3.05c-.08,4.28-.49,8.56-.82,13.43l-9-5.21a112.19,112.19,0,0,0-23.16,42c7.58-2.35,12.35-9.08,23.16-32.37,9.4,1.77,10,2.25,7.06,10.95-2.16,6.51-5.31,12.7-8.23,19.53l12.87-5.95a41.16,41.16,0,0,1-18.93,19C512.78,361.06,510,358.37,507.82,357.08Z" transform="translate(-64 -19.5)"/><path class="cls-5" d="M552,260.69l11.5,2.84c-10.66,36.61-21.19,72.83-31.73,109.05C533.55,334.66,541.8,297.8,552,260.69Z" transform="translate(-64 -19.5)"/><path class="cls-3" d="M677.29,366.4c-4.79-6.79-6.6-14.56-8.34-22.44-2.72-12.33,2.65-23.48,4.68-35.1,1.11-6.35,2.75-12.61,4.21-19.16L673,287.61c6.55,1.34,7-3.29,7.9-7.63s1.72-8.38,2.77-13.46L695,272.08c-1.68,4.54-3.25,8.82-5.14,13.92l10.92-.8c-.61,3.41-1.12,6.26-1.69,9.48l-11.86-3.54c-3.45,11.25-6.49,22.43-10.34,33.33-3,8.41-3.42,16.9-2.57,25.52C674.85,355.51,676.26,360.93,677.29,366.4Z" transform="translate(-64 -19.5)"/><path class="cls-6" d="M664.4,294.23v-16l11.38-1.48L665.43,294.7Z" transform="translate(-64 -19.5)"/><path class="cls-1" d="M308.37,398.25c8.65,8.24,17.08,16.22,25.45,24.26,1.43,1.37,2.49,3.13,3.95,4.45,11,9.94,12.43,22.19,8.4,35.53-8.7,28.78-48.06,36-65.89,15.73-8.79-10-15-21.72-11.2-36a19.58,19.58,0,0,1,4.23-8.1c10.58-11.27,21.45-22.28,32.23-33.36C306.56,399.75,307.72,398.84,308.37,398.25Z" transform="translate(-64 -19.5)"/><path class="cls-1" d="M271,203.88c-.34-14.56,4.95-26.47,16.87-35.17,17.08-12.47,40.34-5,50.94,9.37,14.15,19.21,10.58,39.81-8.37,54.49A184.05,184.05,0,0,0,314,247.7c-2.9,2.88-4.9,2.8-7.91.06-10.41-9.47-21.23-18.51-31.52-28.1-2-1.87-2.74-5.41-3.42-8.33C270.57,209,271,206.38,271,203.88Z" transform="translate(-64 -19.5)"/></svg>